<?xml version="1.0" encoding="UTF-8" standalone="no"?>
<svg
   version="1.1"
   viewBox="0 0 200 200"
   id="svg4"
   sodipodi:docname="superdatepicker.svg"
   inkscape:export-filename="superdatepicker.png"
   inkscape:export-xdpi="9.6000004"
   inkscape:export-ydpi="9.6000004"
   inkscape:version="1.4.3 (0d15f75, 2025-12-25)"
   xmlns:inkscape="http://www.inkscape.org/namespaces/inkscape"
   xmlns:sodipodi="http://sodipodi.sourceforge.net/DTD/sodipodi-0.dtd"
   xmlns="http://www.w3.org/2000/svg"
   xmlns:svg="http://www.w3.org/2000/svg">
  <sodipodi:namedview
     id="namedview4"
     pagecolor="#ffffff"
     bordercolor="#000000"
     borderopacity="0.25"
     inkscape:showpageshadow="2"
     inkscape:pageopacity="0.0"
     inkscape:pagecheckerboard="0"
     inkscape:deskcolor="#d1d1d1"
     inkscape:zoom="1.00875"
     inkscape:cx="61.957869"
     inkscape:cy="228.50062"
     inkscape:window-width="2560"
     inkscape:window-height="1009"
     inkscape:window-x="1432"
     inkscape:window-y="703"
     inkscape:window-maximized="1"
     inkscape:current-layer="svg4" />
  <defs
     id="defs1">
    <clipPath
       id="iconClip">
      <rect
         width="200"
         height="200"
         rx="24"
         id="rect1" />
    </clipPath>
  </defs>
  <!-- Square background -->
  <rect
     width="200"
     height="200"
     rx="24"
     fill="#231337"
     id="rect2" />
  <!--
    S glyph transform:
    Gold outer shape: M136,111.3  → bounding box approx x:100-190, y:3-111  → center ~(145, 57), size ~90x108
    Dark inner shape: M136,107.7  → slightly smaller, same center
    White letter:     M158.5,73.4 → the actual visible letter

    Target: centered in 200x200, scale to fill ~170px height
    Scale = 170/108 = 1.57
    tx = 100 - 1.57*145 = 100 - 227.7 = -127.7
    ty = 100 - 1.57*57  = 100 - 89.5  = 10.5
  -->
  <g
     transform="translate(-127.7, 10.5) scale(1.57)"
     clip-path="url(#iconClip)"
     id="g4">
    <!-- 1. Gold outer layer (largest, rendered first = behind) -->
    <path
       fill="#DFA626"
       d="M136,111.3c-5.6,0-11-1.4-16.3-4.1c-4.9-2.5-9.4-6.3-13.5-11.3l-7.2-8.8l14.2-26.7       c-0.1-0.2-0.2-0.3-0.3-0.5c-2.9-4.5-4.4-9.7-4.4-15.1c0-7,2.2-13.9,6.5-19.8c3.4-4.7,7.6-8.7,12.6-12.1       c4.6-3,9.6-5.5,14.9-7.2C148,3.9,153.5,3,158.8,3c3.3,0,6.6,0.4,9.7,1.2c4,1,7.6,2.8,10.7,5.3c3.2,2.6,5.8,5.7,7.6,9.4       c1.9,3.9,2.9,8.3,2.9,13.2c0,2-0.2,4-0.6,5.9c-0.1,0.7-0.2,1.4-0.3,2.1l-1.5,11.2l-8.2,2.3       c1.8,4.4,2.7,9.4,2.7,15.3c0,6.4-1.4,12.4-4,17.8c-2.5,5.1-6,9.6-10.3,13.3c-4.2,3.6-9.1,6.5-14.7,8.4       C147.6,110.3,141.9,111.3,136,111.3z"
       id="path2" />
    <!-- 2. Dark inner layer (slightly smaller = creates gold border effect) -->
    <path
       fill="#231337"
       d="M136,107.7c-5,0-9.9-1.2-14.6-3.7c-4.4-2.3-8.6-5.8-12.4-10.4l-5.7-6.9l14.1-26.5       c-0.5-0.7-1-1.4-1.5-2.2c-2.5-3.9-3.8-8.4-3.8-13.2c0-6.4,2-12.3,5.8-17.7c3.1-4.3,7-8.1,11.6-11.2       c4.3-2.9,9-5.2,14-6.8c5.2-1.7,10.4-2.6,15.2-2.6c3,0,6,0.4,8.8,1.1c3.5,0.9,6.7,2.5,9.4,4.6       c2.8,2.2,5,5,6.7,8.2c1.7,3.4,2.5,7.3,2.5,11.6c0,1.8-0.2,3.5-0.5,5.3c-0.1,0.7-0.3,1.5-0.4,2.3l-1.2,8.8l-10,2.8       c0.6,1.2,1.2,2.4,1.7,3.7c1.6,4,2.4,8.6,2.4,14c0,5.8-1.2,11.3-3.7,16.2c-2.3,4.7-5.5,8.8-9.4,12.2       c-3.9,3.3-8.4,5.9-13.5,7.7C146.8,106.8,141.5,107.7,136,107.7z"
       id="path3" />
    <!-- 3. White S letter (top layer) -->
    <path
       fill="#ffffff"
       d="m 162.91992,77.188507 c -1.5,3.1 -3.6,5.7 -6.1,8 -2.6,2.2 -5.6,4 -9.1,5.2 -3.5,1.2 -7.3,1.8 -11.3,1.8 -2.8,0 -5.7,-0.7 -8.5,-2.2 -2.8,-1.5 -5.5,-3.8 -8.2,-6.9 l 7.8,-14.7 c 0.5,0.9 1.2,1.8 2.2,2.7 1,0.9 2.1,1.7 3.3,2.4 1.2,0.7 2.5,1.2 3.7,1.7 1.2,0.4 2.3,0.7 3.3,0.7 0.8,0 1.7,-0.1 2.6,-0.4 0.9,-0.3 1.8,-0.7 2.5,-1.2 0.8,-0.5 1.4,-1.2 1.9,-1.9 0.5,-0.7 0.7,-1.5 0.7,-2.5 0,-1.6 -0.5,-3.1 -1.6,-4.5 -1.1,-1.4 -2.5,-2.7 -4.1,-4 -1.6,-1.2 -3.4,-2.5 -5.3,-3.8 -1.9,-1.3 -3.7,-2.6 -5.2,-4.1 -1.6,-1.4 -3,-3 -4.1,-4.8 -1.1,-1.8 -1.7,-3.7 -1.7,-5.9 0,-3.5 1.1,-6.8 3.3,-9.8 2.2,-3 4.9,-5.7 8.2,-7.9 3.3,-2.2 6.9,-3.9 10.8,-5.2 3.9,-1.3 7.6,-1.9 11,-1.9 1.9,0 3.7,0.2 5.4,0.7 1.7,0.4 3.2,1.1 4.4,2.1 1.2,1 2.2,2.2 3,3.7 0.7,1.5 1.1,3.3 1.1,5.6 0,0.9 -0.1,1.9 -0.3,2.8 -0.2,0.9 -0.3,2 -0.5,3 l -15.4,4.3 c 0.1,-0.5 0.3,-1.1 0.4,-1.6 0.1,-0.5 0.2,-1.1 0.2,-1.6 0,-2 -0.4,-3.5 -1.1,-4.4 -0.7,-0.9 -1.7,-1.4 -2.9,-1.4 -0.6,0 -1.3,0.2 -2.1,0.6 -0.8,0.4 -1.6,0.9 -2.4,1.6 -0.8,0.6 -1.5,1.4 -2.1,2.3 -0.6,0.9 -0.8,1.8 -0.8,2.8 0,1.6 0.5,3 1.4,4.1 1,1.1 2.1,2.1 3.5,3 1.4,0.9 2.9,1.9 4.6,2.9 1.7,1 3.2,2.2 4.6,3.8 1.4,1.6 2.6,3.5 3.5,5.8 1,2.3 1.4,5.3 1.4,8.9 0.3,3.7 -0.5,7.2 -2,10.2 z"
       id="path4" />
  </g>
</svg>
